<svg width="550" height="112" viewBox="0 0 550 112" fill="none" xmlns="http://www.w3.org/2000/svg">
<path d="M0.0138712 109.334C-0.0777981 109.879 0.289394 110.394 0.834018 110.486L9.70918 111.98C10.2538 112.072 10.7696 111.704 10.8613 111.16C10.953 110.615 10.5858 110.099 10.0411 110.008L2.15211 108.68L3.47997 100.791C3.57164 100.246 3.20444 99.7303 2.65982 99.6386C2.1152 99.547 1.59938 99.9142 1.50771 100.459L0.0138712 109.334ZM258 51.9999L257.813 52.9822L258 51.9999ZM1.57993 110.315C40.7863 82.405 146.977 31.8517 257.813 52.9822L258.187 51.0176C146.623 29.7482 39.8804 80.5949 0.420069 108.685L1.57993 110.315ZM257.813 52.9822C327.417 66.2521 391.795 66.2591 442.998 56.6077C494.143 46.967 532.356 27.6456 549.333 2.05279L547.667 0.947205C531.144 25.8544 493.607 45.0329 442.627 54.6423C391.705 64.2408 327.583 64.2477 258.187 51.0176L257.813 52.9822Z" fill="url(#paint0_linear_258_46)"/>
<defs>
<linearGradient id="paint0_linear_258_46" x1="274.75" y1="1.49997" x2="474" y2="40" gradientUnits="userSpaceOnUse">
<stop stop-color="#BBACFA"/>
<stop offset="0.943875" stop-color="#9886F9"/>
</linearGradient>
</defs>
</svg>
