<svg width="30" height="26" viewBox="0 0 30 26" fill="none" xmlns="http://www.w3.org/2000/svg">
<path d="M26.5172 12.8014H21.9453V9.14386C21.9453 7.12649 23.5854 5.48631 25.6028 5.48631H26.06C26.8201 5.48631 27.4316 4.87482 27.4316 4.11474V1.37158C27.4316 0.611495 26.8201 0 26.06 0H25.6028C20.5508 0 16.4589 4.09188 16.4589 9.14386V22.8596C16.4589 24.3741 17.6877 25.6028 19.2021 25.6028H26.5172C28.0316 25.6028 29.2603 24.3741 29.2603 22.8596V15.5446C29.2603 14.0301 28.0316 12.8014 26.5172 12.8014ZM10.0582 12.8014H5.48631V9.14386C5.48631 7.12649 7.12649 5.48631 9.14386 5.48631H9.60105C10.3611 5.48631 10.9726 4.87482 10.9726 4.11474V1.37158C10.9726 0.611495 10.3611 0 9.60105 0H9.14386C4.09188 0 0 4.09188 0 9.14386V22.8596C0 24.3741 1.22871 25.6028 2.74316 25.6028H10.0582C11.5727 25.6028 12.8014 24.3741 12.8014 22.8596V15.5446C12.8014 14.0301 11.5727 12.8014 10.0582 12.8014Z" fill="#333333"/>
</svg>
