<svg width="30" height="26" viewBox="0 0 30 26" fill="none" xmlns="http://www.w3.org/2000/svg">
<path d="M2.74316 12.8016L7.31509 12.8016L7.31509 16.4592C7.31509 18.4765 5.67491 20.1167 3.65754 20.1167L3.20035 20.1167C2.44027 20.1167 1.82877 20.7282 1.82877 21.4883L1.82877 24.2314C1.82877 24.9915 2.44027 25.603 3.20035 25.603L3.65754 25.603C8.70952 25.603 12.8014 21.5111 12.8014 16.4592L12.8014 2.74338C12.8014 1.22893 11.5727 0.000223521 10.0582 0.000223388L2.74316 0.000222749C1.22871 0.000222617 2.13085e-06 1.22893 1.99845e-06 2.74338L1.35895e-06 10.0585C1.22655e-06 11.5729 1.22871 12.8016 2.74316 12.8016ZM19.2021 12.8016L23.774 12.8016L23.774 16.4592C23.774 18.4765 22.1339 20.1167 20.1165 20.1167L19.6593 20.1167C18.8992 20.1167 18.2877 20.7282 18.2877 21.4883L18.2877 24.2314C18.2877 24.9915 18.8992 25.603 19.6593 25.603L20.1165 25.603C25.1685 25.603 29.2603 21.5112 29.2603 16.4592L29.2603 2.74338C29.2603 1.22893 28.0316 0.00022496 26.5172 0.000224827L19.2021 0.000224188C17.6877 0.000224055 16.4589 1.22893 16.4589 2.74338L16.4589 10.0585C16.4589 11.5729 17.6877 12.8016 19.2021 12.8016Z" fill="#333333"/>
</svg>
